<?xml version="1.0" encoding="UTF-8"?><svg id="a" xmlns="http://www.w3.org/2000/svg" width="406" height="306" xmlns:xlink="http://www.w3.org/1999/xlink" viewBox="0 0 406 306"><defs><style>.h{fill:#de936e;}.i{fill:#f0f0f0;}.j{fill:#3e85fd;}.k{fill:#45536a;}.l{fill:#fff;opacity:.28;}.l,.m{isolation:isolate;}.n{fill:url(#c);}.o{fill:#90c8eb;}.p{opacity:.18;}.p,.q{fill:#549ed7;}.r{fill:url(#f);}.s{fill:#fdac7f;}.t{fill:url(#d);}.u{fill:url(#e);}.m{fill:#020202;opacity:.1;}.v{fill:#4b8bbd;}.w{stroke:#f0f0f0;stroke-width:1.23px;}.w,.x{fill:none;stroke-miterlimit:25.69;}.x{stroke:url(#b);stroke-width:.54px;}</style><linearGradient id="b" x1="1637" y1="135.8" x2="1692.82" y2="91.22" gradientTransform="translate(4802.22 432) rotate(-180) scale(2.8 2.57)" gradientUnits="userSpaceOnUse"><stop offset="0" stop-color="#fff"/><stop offset="1" stop-color="#d3b6b0"/></linearGradient><linearGradient id="c" x1="1671.38" y1="152.64" x2="1671.35" y2="148.9" gradientTransform="translate(4802.22 432.02) rotate(-180) scale(2.8 2.57)" gradientUnits="userSpaceOnUse"><stop offset="0" stop-color="#fff"/><stop offset="1" stop-color="#d3b6b0"/></linearGradient><linearGradient id="d" x1="1674.66" y1="152.62" x2="1674.86" y2="149.89" gradientTransform="translate(4797.8 478.63) rotate(-179.47) scale(2.8 2.57) skewX(-.04)" gradientUnits="userSpaceOnUse"><stop offset="0" stop-color="#fff"/><stop offset="1" stop-color="#d3b6b0"/></linearGradient><linearGradient id="e" x1="-2325.7" y1="-412.06" x2="-2361.21" y2="-442.3" gradientTransform="translate(6033.36 2320.27) rotate(30.5) scale(2.57 -2.57)" gradientUnits="userSpaceOnUse"><stop offset="0" stop-color="#000"/><stop offset=".13" stop-color="#000" stop-opacity=".69"/><stop offset=".25" stop-color="#000" stop-opacity=".32"/><stop offset="1" stop-color="#000" stop-opacity="0"/></linearGradient><linearGradient id="f" x1="-765.9" y1="-438.43" x2="-712.44" y2="-389.02" gradientTransform="translate(2512.64 246.68) rotate(30.5) scale(2.57 -2.57)" gradientUnits="userSpaceOnUse"><stop offset="0" stop-color="#000"/><stop offset=".13" stop-color="#000" stop-opacity=".69"/><stop offset=".25" stop-color="#000" stop-opacity=".32"/><stop offset="1" stop-color="#000" stop-opacity="0"/></linearGradient></defs><path d="M75.37,297.57c-13.98-2.31-27.15-8.14-38.25-16.95-13.05-10.28-27.26-24.12-26.82-41.31,.46-18.21,7.27-35.76,14.64-52.2,9.97-22.14,23.84-45.52,20.17-70.21-3.62-24.3,1.26-54.23,14.26-75.16C79.91,8.84,115.88,.82,151.84,.08c23.76-.49,48.22,.9,69.87,10.71,22.76,10.28,40.97,29.26,64.22,38.1,15.41,5.81,32.26,6.94,47.34,13.49,18.98,8.25,33.63,24.58,43.11,42.98s14.31,38.82,17.98,59.08c6.01,34.27-8.27,77.07-28.85,105.14-13.72,18.65-36.68,40.25-60.29,35.73-120.2-22.91-97.1,13.72-229.86-7.73Z" style="fill:#549ed7; opacity:.18;"/><path d="M68.77,62.78V239.34c.37,7.97,7.13,14.14,15.1,13.79h80.71c7.98,.32,14.73-5.86,15.1-13.85V62.78c-.36-7.98-7.12-14.16-15.1-13.79H83.87c-7.97-.33-14.72,5.83-15.1,13.79Zm7.71,.13c.22-4.92,4.38-8.74,9.3-8.55h11.25v1.03c.14,3.15,2.8,5.58,5.95,5.45h43.4c3.15,.13,5.81-2.3,5.96-5.45v-1.05h11.77c4.9-.26,9.09,3.5,9.35,8.4V238.82c-.22,4.92-4.38,8.73-9.3,8.53l-78.45,.13c-4.86,.18-8.96-3.57-9.22-8.43V62.91Z" style="fill:#549ed7;"/><path d="M64.89,66.51V243.06c.37,7.97,7.13,14.14,15.1,13.79h80.74c7.98,.31,14.72-5.87,15.1-13.85V66.33c-.36-7.98-7.12-14.17-15.1-13.82l-80.74,.13c-7.99-.32-14.74,5.88-15.1,13.87Zm7.71,0c.22-4.92,4.38-8.73,9.3-8.53h11.38v1.05c.14,3.13,2.79,5.56,5.92,5.42h43.43c3.15,.11,5.81-2.33,5.96-5.47v-1.03h11.77c4.92-.22,9.08,3.59,9.3,8.5V242.6c-.22,4.92-4.38,8.73-9.3,8.53H81.89c-4.92,.22-9.08-3.59-9.3-8.51V66.51Z" style="fill:#f0f0f0;"/><path d="M72.59,66.64V242.6c.22,4.91,4.38,8.72,9.3,8.5h78.45c4.91,.2,9.06-3.59,9.3-8.5V66.48c-.22-4.91-4.38-8.72-9.3-8.5h-11.77v1.03c-.15,3.15-2.81,5.59-5.96,5.47h-43.39c-3.13,.16-5.8-2.25-5.96-5.38v-1.09h-11.38c-4.93-.2-9.1,3.63-9.3,8.57v.06Z" style="fill:none; stroke:url(#b); stroke-miterlimit:25.69; stroke-width:.54px;"/><path d="M72.59,66.64V242.6c.22,4.91,4.38,8.72,9.3,8.5h78.45c4.91,.2,9.06-3.59,9.3-8.5V66.48c-.22-4.91-4.38-8.72-9.3-8.5h-11.77v1.03c-.15,3.15-2.81,5.59-5.96,5.47h-43.39c-3.13,.16-5.8-2.25-5.96-5.38v-1.09h-11.38c-4.93-.2-9.1,3.63-9.3,8.57v.06Z" style="fill:#549ed7;"/><rect x="93.48" y="149.63" width="46.5" height="46.5" style="fill:#fff; isolation:isolate; opacity:.28;"/><rect x="88.62" y="112.21" width="69.64" height="17.01" style="fill:#fff; isolation:isolate; opacity:.28;"/><rect x="88.62" y="87.08" width="69.64" height="17.01" style="fill:#fff; isolation:isolate; opacity:.28;"/><polygon points="115.03 60.73 129.93 60.7 129.93 59.49 115.03 59.52 115.03 60.73" style="fill:url(#c);"/><ellipse cx="111.09" cy="59.92" rx="1.62" ry="1.49" transform="translate(-.58 1.09) rotate(-.56)" style="fill:url(#d);"/><polygon points="340.09 240.49 299.11 240.49 305.15 269.55 334.18 269.55 340.09 240.49" style="fill:#3e85fd;"/><polygon points="340.09 240.49 299.11 240.49 305.15 269.55 334.18 269.55 340.09 240.49" style="fill:#4b8bbd;"/><path d="M293.41,170.13c-.94,2.09-1.36,4.37-1.23,6.65-.61,10.41,.64,20.85,3.67,30.83,5.01,14.36,15.98,25.69,26.61,36.63-.8-1.23,1.28-7.86,1.52-9.45,.51-3.08,1.08-6.17,1.64-9.25,.51-4.95-.07-9.94-1.7-14.64-2.99-10.69-8.46-20.52-15.98-28.69-4.25-4.7-9.14-8.76-14.54-12.07Z" style="fill:#549ed7;"/><path d="M293.41,170.13c-.94,2.09-1.36,4.37-1.23,6.65-.61,10.41,.64,20.85,3.67,30.83,5.01,14.36,15.98,25.69,26.61,36.63-.8-1.23,1.28-7.86,1.52-9.45,.51-3.08,1.08-6.17,1.64-9.25,.51-4.95-.07-9.94-1.7-14.64-2.99-10.69-8.46-20.52-15.98-28.69-4.25-4.7-9.14-8.76-14.54-12.07Z" style="fill:url(#e);"/><path d="M340.39,203.68c3.57-7.7,6.1-15.83,7.53-24.2,1.38-8.46-.69-17.12-5.75-24.04l-18.88,30.83c-3.96,5.72-6.99,12.02-8.99,18.68-2.9,11.82,.59,29.72,8.71,38.97,4.32-3.93,6.11-12.72,8.35-18.14l9.04-22.09Z" style="fill:#549ed7;"/><path d="M340.39,203.68c3.57-7.7,6.1-15.83,7.53-24.2,1.38-8.46-.69-17.12-5.75-24.04l-18.88,30.83c-3.96,5.72-6.99,12.02-8.99,18.68-2.9,11.82,.59,29.72,8.71,38.97,4.32-3.93,6.11-12.72,8.35-18.14l9.04-22.09Z" style="fill:url(#f);"/><path d="M297.65,230.5h43.93c3.67,0,6.65,2.97,6.65,6.64h0c0,3.67-2.98,6.64-6.65,6.64h-43.93c-3.67,0-6.65-2.97-6.65-6.64h0c0-3.67,2.98-6.64,6.65-6.64Z" style="fill:#549ed7;"/><path d="M232.53,244.32c.4,1.25,.52,2.58,.36,3.88-.32,1.25-1.01,2.38-1.98,3.24-2.09,1.95-4.85,3.02-7.71,2.98-.38,.02-.75-.09-1.05-.31-.21-.19-.34-.44-.39-.72-.22-1.49,.14-3,1-4.24,.86-1.23,1.5-2.59,1.9-4.03,.51-2.75-2.21-8.91,2.57-9.17,4.24-.23,4.62,5.65,5.29,8.37Z" style="fill:#fdac7f;"/><path d="M234.38,248.51s1.1,1.41,.57,2.57-7.24,8.53-13.92,6.01,6.17-6.73,6.17-6.73l7.19-1.85Z" style="fill:#020202; isolation:isolate; opacity:.1;"/><path d="M233.02,244.89c-.59-.1-1.16,.24-1.36,.8-.73,1.56-2.22,2.63-3.93,2.83-1.9,0-3.21-1.8-4.11-1.54-2.16,1.98-3.66,4.59-4.29,7.45,.23,1.8,3.03,2.39,5.75,1.8,3.52-1.06,6.66-3.11,9.04-5.91,.55-1.88,.14-3.91-1.1-5.42Z" style="fill:#f0f0f0;"/><path d="M254.67,247.87c.67,1.26,1.05,2.66,1.1,4.08-.09,1.41-.62,2.76-1.52,3.85-1.84,2.46-4.55,4.11-7.58,4.62-.39,.14-.82,.14-1.21,0-.24-.18-.43-.42-.54-.69-.5-1.56-.4-3.26,.28-4.75,.7-1.48,1.14-3.07,1.28-4.7,0-3.06-4.03-9.17,1.13-10.28,4.29-1.21,5.81,5.16,7.04,7.86Z" style="fill:#fdac7f;"/><path d="M257.45,252s1.46,1.31,1.1,2.57-6.22,10.56-13.85,9.07,5.34-8.37,5.34-8.37l7.4-3.26Z" style="fill:#020202; isolation:isolate; opacity:.1;"/><path d="M255.31,248.38c-.65,0-1.21,.46-1.31,1.1-.52,1.8-1.92,3.22-3.72,3.75-2.03,.46-3.78-1.31-4.7-.87s-3.78,6.91-3.19,8.81,3.67,2.03,6.5,.87,8.14-6.06,8.63-8.07c.23-2.12-.59-4.21-2.21-5.6Z" style="fill:#f0f0f0;"/><path d="M235.53,181.23c-.15,2.26-4.39,5.93-5.75,7.71-2.16,3.08-4.14,6.27-6.06,9.5-1.65,2.57-2.97,5.33-3.93,8.22-.66,2.52-1,5.11-1.03,7.71-.41,9.07,.36,18.55,4.91,26.41,.29,.58,.74,1.07,1.31,1.39,.41,.13,.83,.18,1.26,.15h4.37c.63,.19,1.28-.17,1.47-.8,.06-.19,.06-.39,.02-.59v-17.44c-.05-1.03,.05-2.06,.28-3.06,.36-1.04,.88-2.01,1.54-2.88,1.64-2.34,3.44-4.56,5.39-6.65,3.65-3.49,7.08-7.21,10.28-11.12,2.52-3.51,3.95-7.68,4.11-12,0-1.54,.92-2.57-.39-3.54-.96-.34-1.96-.52-2.98-.54-4.93-.85-9.92-1.49-14.8-2.47Z" style="fill:#45536a;"/><path d="M250,183.98c0,2.26-3.67,6.4-4.8,8.45-1.77,3.31-3.39,6.73-4.91,10.28-1.35,2.73-2.34,5.62-2.95,8.61-.36,2.55-.41,5.14-.15,7.71,.28,4.84,1.09,9.64,2.41,14.31,.66,2.3,1.52,4.55,2.57,6.7,.56,1.08,1.18,2.14,1.85,3.16,.51,.8,.85,2.16,1.57,2.72,.55,.35,1.2,.51,1.85,.44,.86,.05,1.73-.04,2.57-.26,3.57-1.03,3.24-4.55,2.88-7.45l-1.44-12.12c-.16-1.02-.16-2.06,0-3.08,.23-1.07,.64-2.09,1.21-3.03,1.36-2.51,2.89-4.92,4.57-7.22,3.22-3.89,6.2-7.99,8.91-12.25,2.05-3.79,2.95-8.09,2.57-12.38,0-1.57,.62-2.77-.77-3.47-1-.23-2.03-.31-3.06-.23-4.91-.39-9.89-.46-14.87-.87Z" style="fill:#45536a;"/><path d="M223.38,157.5c0,2,.77,3.72,2.57,4.32h.46c3.19,.62,7.35-1.8,10.28-3.9,1.18-.82,2.31-1.71,3.39-2.65v-21.32l-15.41,15.85c-.83,2.49-1.26,5.09-1.28,7.71Z" style="fill:#549ed7;"/><path d="M236.48,157.96c0,1-.13,2-.13,3.01,0,5.52,1.28,11.17-.36,16.59-.55,1.14-.72,2.43-.46,3.67,.47,1,1.29,1.79,2.31,2.21,5.01,2.37,10.41,3.8,15.93,4.24,4.11,.59,9.97,1.8,13.77-.41,1.45-1.08,2.42-2.68,2.7-4.47,1.46-5.68,2.32-11.5,2.57-17.37l.15-2.29c.31-5.14,.41-10.56,.31-15.82,.33-3.84-.69-7.67-2.88-10.84-4.01-3.87-9.11-6.42-14.62-7.3-1.59-.34-3.21-.43-4.83-.28-2.27,.37-4.47,1.12-6.5,2.21-2.41,.82-4.45,2.46-5.78,4.62-1.26,2.78-2.13,5.72-2.57,8.73-.52,2.82-.64,5.7-.36,8.55,0,1.39,.49,2.8,.64,4.19,.08,.23,.1,.62,.1,.74Z" style="fill:#549ed7;"/><path d="M256.91,149.45c-1.08-.53-1.92-1.45-2.36-2.57-.43-1.1-.78-2.24-1.05-3.39-.7-2.37-1.8-4.61-3.26-6.6-.85-1.35-2.11-2.39-3.6-2.98-1.53-.45-3.19-.08-4.39,.98-1.82,1.7-1.41,4.01-1.16,6.19,1.1,9.15,6.73,17.01,11.64,24.81,.98,1.54,1.84,3.15,2.57,4.83,1.27,4.15,2.3,8.37,3.08,12.64,.44,1.44-.74,4.21-.15,5.29,.14,.24,.37,.42,.64,.49,1.59,.46,5.14-1,6.5-1.21,.72,0,1.39-.49,2.11-.67,3.65-.92,4.08-11.17,4.44-13.92,1.28-7.33,2.13-14.72,2.57-22.14,.15-2.82-.18-5.64-.98-8.35-.84-2.73-2.84-4.95-5.47-6.06-3.6-1.31-4.93,6.42-5.37,8.5-.2,2.1-.56,4.19-1.08,6.24-1.13,2.9-4.78-.74-6.04-2.41s-2.57-4.32-3.9-6.35c-2.01-2.09-4.37-3.83-6.96-5.14-.4-.33-.88-.56-1.39-.67-.92-.02-1.75,.56-2.06,1.44-.1,.26-.16,.52-.21,.8" style="fill:#020202; isolation:isolate; opacity:.1;"/><path d="M247.74,124.61c.59,.64,1.4,1.04,2.26,1.13,.72,.06,1.44,.06,2.16,0h.39c.1-.04,.21-.04,.31,0v.31c.13,1.44,.13,2.9,0,4.34h0v.77c-.09,.27-.09,.56,0,.82,.15,.33,.54,.46,.87,.59,.64,.2,1.31,.31,1.98,.33,1.42-.14,2.79-.63,3.98-1.41-.1-2.47,.03-4.95,.39-7.4,.71-3.11,1.03-6.29,.95-9.48-.08-1.25-.54-2.45-1.31-3.44-1.26-1.2-2.96-1.82-4.7-1.7-2.27-.04-4.51,.57-6.45,1.77-.72,.49-.8,1.1-.98,1.9-.23,1.26-.44,2.57-.57,3.78-.17,1.43-.27,2.87-.28,4.32-.09,1.21,.27,2.4,1,3.37Z" style="fill:#fdac7f;"/><path d="M250.23,112.18c1.66-.03,3.32,.14,4.93,.51,2.14,1.08,3.14,3.58,2.34,5.83,.62,.23,.72-.9,1.21-1.34s1.54,.15,1.62,.92c-.03,.77-.26,1.52-.67,2.18-.59,1.36-.69,2.89-.28,4.32,0,.36,.33,.74,.67,.67s.59-.67,.8-.92c.33-.39,.69-.76,1.08-1.1,.74-.64,1.57-1.23,2.34-1.88,1.56-1.32,2.62-3.13,3.01-5.14,.04-.42,.14-.84,.31-1.23,.49-.72,1.25-1.21,2.11-1.36,.08-1.15,.67-2.21,1.62-2.88l-1.98-.18c.33-.47,.53-1.02,.59-1.59-1.41,.11-2.81-.38-3.85-1.34-1.1-.87-1.98-1.98-3.03-2.9-2.01-1.78-4.59-2.78-7.27-2.83-2.7-.01-5.28,1.1-7.12,3.08-1.11,1.12-1.71,2.66-1.64,4.24,.23,2.16,1.59,2.75,3.24,2.93Z" style="fill:#45536a;"/><path d="M252.15,125.77h.39c.1-.04,.21-.04,.31,0v.31c.13,1.44,.13,2.9,0,4.34h0c2.64-.75,4.4-3.24,4.21-5.99-1.57,.65-3.21,1.13-4.88,1.44l-.03-.1Z" style="fill:#de936e;"/><path d="M210.49,152c2.03,2.88,4.54,5.38,7.42,7.4,2.08,1.43,4.48,2.32,6.99,2.57,.32,.06,.65,.06,.98,0,.53-.16,1-.48,1.34-.92,1.05-1.25,1.68-2.79,1.8-4.42-.22-2.85-1.89-5.39-4.42-6.73,0,0-10.48-3.34-11.71-2.8-.69,.31-1.34,1.77-1.8,3.06s-.59,1.85-.59,1.85Z" style="fill:#549ed7;"/><path d="M217.91,159.4c2.08,1.43,4.48,2.32,6.99,2.57,.32,.06,.65,.06,.98,0h.46c3.19,.62,7.35-1.8,10.28-3.9h0l-.98-6.37c-1.91,1.98-4.13,3.63-6.58,4.88-1.72,.92-3.69,1.28-5.63,1.03-.52-.08-1.03-.24-1.52-.46-3.91-1.85-7.55-4.21-10.84-7.01-.36,1.08-.59,2-.59,2" style="fill:#020202; isolation:isolate; opacity:.1;"/><path d="M212.44,144.57l-.23-.44c-.38-.51-.8-1-1.26-1.44-.85-.98-1.83-1.84-2.9-2.57-1.25-.63-2.53-1.18-3.85-1.64-.46-.25-1.01-.31-1.52-.18-.55,.27-.84,.89-.69,1.49,.17,.58,.57,1.06,1.1,1.34,.28,.15,.64,.36,.62,.69-.02,.15-.08,.29-.18,.41-.38,.72-.57,1.52-.57,2.34-.12,1.3-.03,2.61,.26,3.88,.28,1.29,1.02,2.43,2.08,3.21,.66,.47,1.4,.81,2.18,1.03,2.77,.69,4.91,0,5.6-2.98,.27-1.44,.14-2.92-.39-4.29-.08-.44-.08-.59-.26-.85Z" style="fill:#fdac7f;"/><circle cx="321.38" cy="92.56" r="44.11" transform="translate(174.47 393.01) rotate(-80.01)" style="fill:#549ed7;"/><circle cx="246.94" cy="48.47" r="29.05" style="fill:#549ed7;"/><path d="M248.28,122.53c-1.36-.12-2.6,.78-2.9,2.11,0,.59,0,1.23-.15,1.82-.26,1.26-1.36,2.18-1.9,3.37-.66,1.52-.3,3.28,.9,4.42,.89,.69,1.93,1.17,3.03,1.41,.27,.05,.55,.05,.82,0,.33-.07,.64-.2,.92-.39,1.3-1.16,2.1-2.76,2.26-4.5,.51-2.95,1.34-7.68-2.98-8.25Z" style="fill:#fdac7f;"/><path d="M247.51,148.71c.96,3.87,2.71,7.5,5.14,10.66,2.45,3.21,6.24,5.1,10.28,5.14,4.49-.43,8.4-3.22,10.28-7.32,1.78-4.03,2.35-8.49,1.64-12.84-.15-2.24-.86-4.41-2.08-6.29-1.28-1.91-3.54-2.91-5.81-2.57-2.09,.69-3.74,2.3-4.47,4.37-.85,2.06-1.23,4.29-2.21,6.27l-3.8-8.09c-.73-1.9-1.82-3.65-3.21-5.14-2.06-1.96-5.31-1.87-7.26,.18-.67,.71-1.13,1.59-1.32,2.54-.39,3.98,1.75,9.38,2.83,13.1Z" style="fill:#549ed7;"/><polyline points="293.64 71.05 293.64 109.56 351.85 109.56" style="fill:none; stroke:#f0f0f0; stroke-miterlimit:25.69; stroke-width:1.23px;"/><rect x="301.71" y="96.51" width="9.81" height="13.05" style="fill:#f0f0f0;"/><rect x="317.84" y="83.44" width="9.81" height="26.13" style="fill:#f0f0f0;"/><rect x="332.56" y="72.31" width="9.81" height="37.25" style="fill:#f0f0f0;"/><g id="g"><path d="M227.85,58.88c-.01-.36,.13-.7,.39-.95,.56-.58,.97-1.3,1.18-2.08,.19-.98-.21-1.99-1.03-2.57-.51-.39-1.1-.66-1.72-.82-.66-.17-1.09-.81-1-1.49v-1.23c.07-.79,.76-1.37,1.54-1.31,.6-.02,1.18-.16,1.72-.41,1.34-.43,2.09-1.86,1.67-3.21-.16-.54-.36-1.06-.59-1.57-.27-.61-.09-1.32,.44-1.72,.31-.23,.64-.46,.92-.72,.55-.45,1.35-.45,1.9,0,.45,.45,.98,.81,1.57,1.05,1.12,.51,2.45,.16,3.16-.85,.4-.55,.7-1.17,.9-1.82,.21-.64,.85-1.03,1.52-.92l1.26,.18c.68,.07,1.2,.65,1.18,1.34,.04,.78,.25,1.54,.62,2.23,.55,.95,1.64,1.45,2.72,1.23,.59-.12,1.17-.32,1.7-.62,.66-.38,1.5-.16,1.9,.49,.23,.36,.54,.67,.8,1.03,.36,.52,.29,1.22-.15,1.67-.46,.48-.83,1.05-1.08,1.67-.55,1.26,0,2.74,1.23,3.34,.45,.25,.92,.45,1.41,.62,.6,.18,1,.74,.98,1.36,0,.49,0,1-.18,1.49-.08,.67-.66,1.17-1.34,1.16-.73,.02-1.45,.2-2.11,.51-.99,.51-1.54,1.6-1.36,2.7,.08,.63,.28,1.24,.59,1.8,.41,.63,.23,1.47-.41,1.88l-.03,.02-.85,.67c-.54,.52-1.39,.52-1.93,0-.5-.47-1.1-.84-1.75-1.08-1.11-.4-2.35,.02-3.01,1-.37,.54-.65,1.13-.85,1.75-.19,.62-.8,1-1.44,.92l-1.46-.26c-.6-.12-1.04-.62-1.08-1.23-.03-.75-.2-1.48-.51-2.16-.52-1.1-1.75-1.68-2.93-1.39-.57,.17-1.13,.37-1.67,.62-.56,.29-1.25,.16-1.67-.31-.33-.38-.64-.77-.92-1.18-.13-.25-.23-.5-.31-.77l.08-.05Zm11.48-11.51c-2.48-.01-4.51,1.99-4.52,4.47h0c.04,2.42,1.95,4.39,4.37,4.5,2.47,.23,4.66-1.6,4.88-4.07s-1.6-4.66-4.07-4.88c-.22-.02-.44-.02-.66-.01Z" style="fill:#f0f0f0;"/><path d="M261.89,45.88c.01,.17,.01,.34,0,.51-.01,.45-.33,.83-.77,.92l-.92,.23c-.5,.13-1.02-.12-1.23-.59-.2-.37-.42-.73-.67-1.08-.66-.87-1.9-1.03-2.77-.37-.03,.02-.05,.04-.08,.06-.3,.24-.58,.49-.85,.77-.32,.39-.88,.49-1.31,.23l-.77-.46c-.52-.25-.74-.88-.49-1.41h0c.13-.44,.22-.89,.26-1.34,.06-1.02-.68-1.91-1.7-2.03-.48-.03-.96-.03-1.44,0-.5-.02-.9-.41-.95-.9-.04-.26-.1-.52-.18-.77-.16-.52,.09-1.07,.59-1.28,.45-.23,.88-.51,1.26-.85,.68-.63,.79-1.66,.26-2.41-.23-.34-.5-.66-.8-.95-.51-.33-.66-1.02-.32-1.53,.02-.03,.04-.06,.07-.09,.15-.21,.26-.44,.41-.67,.25-.47,.83-.66,1.31-.44,.54,.21,1.12,.3,1.7,.26,.79-.03,1.47-.59,1.64-1.36,.12-.51,.17-1.02,.15-1.54-.02-.48,.27-.93,.72-1.1l1.03-.26c.51-.13,1.04,.15,1.23,.64,.23,.56,.59,1.05,1.05,1.44,.77,.61,1.87,.55,2.57-.13,.28-.21,.54-.45,.77-.72,.33-.39,.89-.5,1.34-.26l.9,.51c.43,.27,.6,.81,.41,1.28-.21,.49-.31,1.01-.28,1.54,0,.96,.7,1.77,1.64,1.9,.44,.03,.87,.03,1.31,0,.55-.06,1.04,.33,1.1,.87,0,.31,.15,.62,.21,.92,.12,.47-.13,.96-.59,1.13-.5,.21-.94,.53-1.31,.92-.6,.58-.73,1.49-.31,2.21,.27,.43,.58,.83,.95,1.18,.46,.33,.57,.97,.23,1.43h0c0,.26-.28,.49-.41,.72-.25,.51-.87,.73-1.39,.49-.64-.28-1.36-.34-2.03-.15-.69,.19-1.21,.76-1.34,1.46-.03,.34-.03,.69,0,1.03h-.21Zm-3.8-11.79c-1.84-.01-3.35,1.47-3.37,3.31,0,.02,0,.03,0,.05,0,1.86,1.51,3.37,3.37,3.37s3.37-1.51,3.37-3.37c.01-1.84-1.47-3.35-3.31-3.37-.02,0-.03,0-.05,0Z" style="fill:#f0f0f0;"/></g><rect x="129.93" y="130.11" width="96.92" height="96.92" style="fill:#f0f0f0;"/><rect x="142.26" y="154.08" width="67.15" height="48.73" rx="3.16" ry="3.16" style="fill:#90c8eb;"/><polygon points="145.37 174.6 156.08 164.66 170.83 182.44 183.75 171.14 189.12 175.73 201.11 159.7 207.2 167.05 207.2 199.26 145.37 199.26 145.37 174.6" style="fill:#f0f0f0;"/><polygon points="170.8 182.9 156.03 165.12 145.6 174.86 145.14 174.37 156.11 164.17 170.88 181.98 183.75 170.7 189.06 175.27 201.09 159.17 207.46 166.85 206.94 167.26 201.11 160.24 189.17 176.22 183.75 171.57 170.8 182.9" style="fill:#549ed7;"/><circle cx="207.28" cy="166.82" r="1.36" style="fill:#549ed7;"/><circle cx="189.12" cy="175.73" r="1.36" style="fill:#549ed7;"/><circle cx="145.37" cy="174.6" r="1.36" style="fill:#549ed7;"/><circle cx="183.75" cy="171.14" r="1.36" style="fill:#549ed7;"/><circle cx="156.08" cy="164.66" r="1.36" style="fill:#549ed7;"/><circle cx="170.83" cy="182.44" r="1.36" style="fill:#549ed7;"/><circle cx="201.24" cy="159.7" r="1.36" style="fill:#549ed7;"/><path d="M202.34,129.96c-.23,1.06,.09,2.17,.85,2.95,.65,.56,1.51,.83,2.36,.72,.86-.11,1.64-.53,2.21-1.18,.34,.34,.78,.57,1.26,.64,.51,.05,.98-.26,1.13-.74,0-.54-.33-1-.51-1.54s0-.85-.28-1.23c-.37-.61-.97-1.04-1.67-1.18-1.77-.51-4.96-.64-5.34,1.57Z" style="fill:#fdac7f;"/></svg>